<svg width="1536" height="1506" xmlns="http://www.w3.org/2000/svg" preserveAspectRatio="xMidYMid meet">
 <metadata>Created by potrace 1.16, written by Peter Selinger 2001-2019</metadata>

 <g>
  <title>background</title>
  <rect fill="none" id="canvas_background" height="602" width="802" y="-1" x="-1"/>
 </g>
 <g>
  <title>Layer 1</title>
  <g id="svg_1" fill="#000000" transform="translate(0,1506) scale(0.10000000149011612,-0.10000000149011612) ">
   <path fill="#1c41ff" stroke="#6b83e0" id="svg_2" d="m2370,12458c-14,-5 -47,-14 -75,-19c-28,-5 -65,-21 -85,-38c-19,-15 -52,-31 -72,-35c-58,-11 -242,-169 -298,-257c-17,-26 -37,-50 -44,-52c-8,-3 -22,-27 -32,-54c-9,-26 -28,-59 -40,-73c-13,-14 -30,-43 -40,-65c-9,-22 -29,-55 -45,-73c-16,-18 -29,-41 -29,-51c0,-11 -15,-38 -34,-60c-19,-23 -40,-58 -46,-79c-7,-20 -23,-48 -35,-62c-13,-14 -30,-40 -39,-57c-9,-18 -29,-47 -45,-65c-15,-18 -32,-44 -36,-58c-4,-14 -20,-41 -35,-60c-15,-19 -37,-53 -48,-76c-11,-22 -27,-46 -36,-53c-8,-7 -20,-29 -27,-49c-6,-20 -24,-50 -40,-67c-15,-16 -35,-46 -43,-65c-8,-20 -23,-44 -34,-53c-11,-10 -26,-33 -33,-50c-7,-18 -25,-45 -40,-62c-15,-16 -35,-48 -45,-70c-9,-22 -29,-55 -45,-73c-16,-18 -29,-39 -29,-46c0,-8 -18,-35 -39,-61c-22,-26 -42,-59 -46,-72c-5,-22 -26,-53 -108,-163c-19,-25 -39,-62 -46,-82c-6,-19 -21,-44 -32,-54c-29,-26 -71,-111 -67,-136c2,-13 17,-26 43,-37c23,-9 56,-28 75,-42c19,-15 52,-32 73,-39c21,-6 50,-23 66,-36c16,-13 48,-31 71,-39c23,-8 57,-28 76,-44c18,-17 51,-33 71,-37c21,-4 54,-21 74,-39c20,-18 52,-36 70,-40c19,-4 48,-20 64,-35c17,-15 53,-35 82,-44c28,-10 57,-24 65,-33c7,-9 40,-29 74,-44c33,-15 66,-34 73,-43c7,-8 36,-22 64,-32c29,-9 64,-27 78,-41c14,-13 42,-28 63,-34c20,-6 52,-23 70,-40c19,-16 56,-36 83,-44c27,-8 60,-26 73,-40c13,-14 42,-30 64,-36c22,-6 55,-24 72,-39c18,-15 54,-35 82,-44c27,-9 60,-28 72,-41c13,-14 42,-30 64,-36c23,-6 52,-22 66,-35c14,-13 52,-33 84,-44c32,-11 69,-30 81,-43c13,-12 40,-28 61,-36c22,-8 55,-27 74,-42c19,-16 41,-29 48,-29c18,0 72,-29 105,-56c16,-13 37,-24 46,-24c10,0 45,-18 77,-40c33,-22 67,-40 76,-40c9,0 38,-16 64,-36c26,-20 64,-41 83,-46c20,-6 47,-20 61,-33c32,-29 63,-45 89,-45c12,0 38,-15 59,-34c22,-20 58,-40 85,-47c26,-6 53,-20 61,-30c7,-10 39,-30 72,-45c32,-14 68,-34 80,-45c11,-10 42,-25 68,-33c27,-8 60,-26 75,-39c14,-14 43,-30 64,-37c21,-7 53,-25 71,-40c17,-15 50,-33 72,-39c22,-6 49,-20 60,-32c23,-26 67,-49 91,-49c10,0 34,-13 53,-28c44,-36 74,-52 97,-52c11,0 32,-14 48,-30c17,-18 51,-37 81,-46c28,-8 61,-26 74,-39c13,-13 46,-31 75,-39c28,-9 59,-24 69,-35c10,-10 41,-29 69,-41c29,-12 63,-32 77,-45c14,-12 37,-25 51,-29c15,-3 48,-21 75,-39c27,-19 64,-39 83,-45c19,-7 49,-23 67,-37c19,-14 52,-32 75,-40c23,-8 56,-28 74,-44c19,-16 48,-32 66,-36c19,-4 50,-21 70,-37c19,-16 53,-34 75,-40c21,-5 54,-23 71,-39c18,-15 52,-34 75,-40c24,-7 54,-23 68,-35c14,-13 48,-33 75,-45c28,-12 64,-32 80,-44c17,-13 46,-28 66,-34c20,-6 51,-23 70,-37c19,-14 53,-34 77,-44c24,-11 57,-31 74,-45c16,-14 38,-25 49,-25c26,0 69,-23 93,-49c11,-12 38,-26 60,-32c22,-6 55,-24 74,-40c18,-16 52,-34 76,-40c25,-6 56,-24 72,-40c15,-16 46,-34 69,-40c22,-6 51,-21 65,-34c14,-14 45,-31 70,-40c25,-9 56,-27 70,-40c14,-14 48,-31 74,-39c27,-8 60,-26 75,-39c14,-14 44,-30 66,-37c22,-7 60,-28 84,-46c24,-19 52,-34 61,-34c10,0 44,-18 76,-40c33,-22 68,-40 79,-40c11,0 42,-18 69,-40c26,-22 59,-40 72,-40c13,0 38,-13 56,-29c18,-15 56,-40 85,-55c46,-23 53,-24 67,-11c8,9 18,32 22,51c10,52 -1,170 -17,193c-55,74 -106,129 -138,145c-20,10 -51,31 -68,47c-18,15 -50,33 -72,39c-21,5 -45,17 -52,26c-15,19 -82,54 -103,54c-8,0 -32,15 -54,34c-23,18 -60,38 -84,44c-24,6 -55,23 -68,37c-13,14 -43,30 -66,36c-23,6 -56,24 -73,40c-17,15 -49,33 -71,39c-21,6 -52,21 -68,35c-16,13 -54,33 -84,45c-30,11 -65,31 -77,44c-13,13 -38,27 -56,30c-18,4 -52,22 -77,40c-24,18 -58,37 -75,40c-17,4 -51,22 -75,40c-23,19 -55,36 -71,40c-15,4 -48,22 -72,41c-25,19 -61,37 -79,41c-19,3 -44,17 -57,30c-12,13 -47,33 -77,44c-30,12 -68,32 -83,45c-16,13 -45,29 -66,35c-21,7 -49,23 -63,35c-14,13 -49,33 -79,44c-30,11 -63,29 -75,40c-12,11 -41,27 -64,35c-23,8 -57,27 -76,41c-18,14 -48,30 -67,36c-19,7 -54,26 -79,44c-25,18 -58,35 -74,39c-16,4 -47,22 -68,40c-21,19 -54,36 -74,39c-19,3 -53,21 -75,40c-22,19 -54,37 -71,41c-16,3 -45,19 -64,36c-19,16 -53,34 -76,40c-24,7 -54,22 -68,35c-14,13 -45,31 -70,41c-25,9 -54,26 -66,36c-12,10 -45,28 -74,39c-30,11 -66,31 -82,44c-16,13 -44,29 -64,34c-19,5 -53,26 -75,45c-21,20 -48,36 -60,36c-26,0 -56,16 -97,51c-18,16 -44,29 -57,29c-13,0 -39,13 -57,29c-41,35 -71,51 -97,51c-11,0 -35,13 -53,29c-41,35 -71,51 -97,51c-12,0 -29,9 -39,21c-21,25 -84,59 -111,59c-11,0 -33,12 -48,26c-15,14 -50,36 -78,49c-27,12 -56,29 -63,38c-8,9 -36,23 -63,32c-27,9 -63,28 -78,41c-16,13 -48,31 -71,39c-23,8 -58,28 -78,43c-21,16 -50,32 -67,36c-16,4 -48,21 -69,38c-21,17 -57,38 -80,45c-23,8 -52,25 -66,37c-14,13 -48,31 -76,40c-28,9 -62,28 -74,42c-13,13 -46,31 -73,39c-27,8 -60,26 -74,39c-13,14 -44,31 -69,40c-25,8 -59,27 -75,41c-17,14 -36,25 -44,25c-7,0 -37,16 -66,36c-30,20 -71,42 -92,50c-20,7 -52,25 -71,39c-18,14 -48,30 -67,36c-19,7 -54,26 -79,44c-25,18 -58,35 -75,39c-16,4 -47,21 -68,38c-21,16 -55,34 -75,40c-20,5 -49,21 -63,34c-14,14 -50,34 -80,45c-30,11 -65,31 -79,43c-14,13 -46,31 -72,41c-26,10 -53,24 -60,32c-7,8 -37,26 -67,40c-31,13 -65,33 -76,43c-11,11 -40,26 -63,34c-23,8 -58,27 -76,41c-19,14 -50,31 -70,36c-19,5 -53,24 -75,42c-22,18 -51,40 -65,50c-33,23 -33,54 -1,98c14,19 40,57 60,86c19,28 40,55 46,59c6,3 20,27 32,53c11,25 31,60 44,76c28,35 65,88 90,129c10,15 28,42 40,60c12,17 33,51 47,76c13,25 36,56 50,69c14,13 31,40 37,60c7,19 25,48 41,64c15,16 28,35 28,43c0,8 16,31 35,53c19,21 42,56 51,77c9,21 27,52 41,69c64,80 95,124 113,163c11,23 26,45 34,48c8,3 21,23 30,44c8,21 28,53 44,72c16,18 39,52 51,75c11,23 25,45 31,48c6,3 20,25 31,48c12,23 37,59 55,80c19,20 34,43 34,51c0,8 16,33 35,56c19,23 35,47 35,54c0,7 18,32 40,56c22,24 40,49 40,55c0,7 14,29 30,50c17,21 39,57 50,79c11,23 45,72 75,110c71,89 73,139 5,114z"/>
   <path fill="#1c41ff" stroke="#6b83e0" id="svg_3" d="m13306,12463c-14,-14 -4,-46 29,-97c19,-29 40,-60 48,-67c19,-20 88,-124 119,-182c15,-28 36,-60 46,-71c10,-12 28,-37 40,-57c12,-19 30,-43 41,-53c11,-10 23,-31 26,-46c3,-15 17,-38 31,-51c14,-13 35,-42 46,-64c12,-22 34,-55 49,-73c16,-18 29,-39 29,-47c0,-8 13,-29 28,-47c16,-18 40,-53 54,-78c14,-25 35,-54 47,-64c12,-11 21,-27 21,-37c0,-10 13,-33 28,-51c36,-44 102,-140 127,-188c11,-21 30,-49 41,-62c12,-13 31,-41 42,-63c11,-22 32,-51 46,-64c14,-14 26,-33 26,-43c0,-10 15,-35 34,-55c18,-21 40,-52 49,-69c9,-17 23,-37 32,-44c10,-8 28,-37 41,-65c23,-48 76,-128 112,-170c9,-11 28,-39 42,-62c72,-120 86,-141 118,-175c28,-30 35,-45 36,-79c1,-38 -3,-45 -34,-65c-19,-12 -49,-34 -66,-48c-17,-14 -42,-30 -55,-35c-13,-5 -48,-25 -78,-45c-29,-20 -61,-36 -72,-36c-10,0 -33,-13 -51,-29c-18,-15 -50,-34 -71,-41c-21,-6 -53,-25 -71,-40c-17,-15 -50,-33 -74,-39c-23,-7 -57,-25 -75,-40c-18,-16 -51,-34 -75,-40c-23,-7 -57,-25 -75,-41c-18,-16 -46,-32 -63,-36c-16,-3 -49,-21 -72,-40c-24,-18 -58,-36 -75,-40c-18,-4 -50,-21 -72,-39c-22,-18 -57,-37 -77,-43c-20,-6 -54,-23 -75,-40c-21,-16 -54,-35 -74,-41c-20,-7 -44,-20 -54,-31c-10,-11 -43,-29 -73,-40c-30,-12 -68,-32 -83,-45c-16,-13 -45,-29 -66,-36c-21,-6 -53,-25 -71,-40c-18,-16 -39,-29 -48,-29c-22,0 -86,-35 -107,-58c-10,-11 -34,-23 -52,-26c-19,-4 -52,-22 -74,-40c-22,-19 -55,-36 -73,-40c-18,-3 -52,-22 -76,-40c-24,-19 -57,-38 -75,-42c-18,-3 -48,-20 -69,-35c-20,-16 -56,-36 -79,-44c-24,-9 -53,-24 -64,-35c-11,-10 -42,-28 -70,-40c-27,-12 -59,-30 -70,-40c-11,-11 -41,-26 -65,-35c-25,-9 -56,-27 -70,-40c-14,-14 -47,-31 -73,-39c-26,-8 -63,-28 -82,-45c-20,-17 -45,-31 -56,-31c-26,0 -69,-23 -93,-49c-11,-12 -39,-26 -62,-32c-23,-6 -55,-24 -70,-40c-15,-16 -46,-34 -68,-40c-23,-6 -58,-24 -78,-41c-21,-16 -55,-34 -75,-40c-21,-6 -53,-23 -70,-39c-18,-15 -51,-33 -73,-39c-23,-6 -49,-20 -58,-30c-9,-11 -47,-32 -85,-46c-38,-15 -71,-32 -74,-40c-2,-7 -26,-21 -51,-30c-26,-10 -62,-30 -79,-45c-18,-16 -50,-33 -72,-39c-22,-6 -58,-26 -81,-45c-23,-19 -52,-35 -65,-35c-13,0 -47,-18 -76,-40c-30,-22 -63,-40 -75,-40c-12,0 -41,-16 -65,-35c-24,-19 -57,-37 -74,-41c-16,-3 -50,-21 -75,-39c-25,-17 -60,-37 -77,-43c-18,-6 -48,-22 -65,-36c-18,-13 -56,-34 -83,-46c-28,-12 -53,-28 -58,-35c-4,-7 -30,-21 -58,-30c-28,-10 -65,-30 -83,-45c-17,-15 -50,-33 -74,-39c-23,-7 -57,-25 -75,-40c-18,-16 -51,-34 -75,-40c-23,-7 -57,-24 -75,-40c-17,-15 -50,-33 -73,-39c-22,-6 -51,-23 -64,-37c-13,-14 -42,-30 -64,-36c-23,-6 -59,-26 -81,-44c-22,-18 -56,-36 -75,-40c-19,-4 -49,-20 -65,-36c-17,-15 -50,-35 -75,-44c-24,-8 -51,-22 -60,-30c-8,-7 -44,-27 -80,-43c-36,-16 -71,-36 -78,-45c-8,-9 -35,-23 -61,-32c-27,-9 -58,-27 -71,-40c-13,-13 -46,-31 -74,-39c-29,-9 -63,-27 -75,-40c-13,-14 -47,-32 -75,-40c-29,-9 -63,-27 -76,-41c-13,-14 -42,-30 -64,-36c-23,-6 -61,-26 -85,-45c-24,-19 -53,-34 -64,-34c-11,0 -43,-17 -71,-38c-28,-22 -65,-44 -81,-51c-17,-6 -44,-31 -60,-56c-17,-25 -33,-45 -37,-45c-3,0 -16,-15 -27,-34c-17,-27 -21,-50 -21,-125c0,-93 10,-131 34,-131c26,0 106,41 129,66c13,14 43,30 67,35c26,6 59,24 82,44c21,19 47,35 59,35c26,0 57,16 89,45c14,13 42,28 63,33c20,6 54,24 75,40c20,17 56,35 78,41c22,6 51,22 63,35c13,14 44,32 69,41c25,8 58,26 72,39c14,13 42,29 63,36c21,7 53,25 71,40c17,15 50,33 74,39c23,7 57,24 75,40c17,15 51,33 75,40c23,6 57,25 75,40c17,16 46,31 62,35c17,4 50,22 74,41c24,19 61,40 81,45c21,6 44,17 51,26c14,17 82,54 99,54c6,0 34,16 62,36c29,19 64,38 79,41c15,3 38,16 50,29c12,13 45,31 73,40c28,9 62,27 76,39c14,13 45,31 70,41c25,9 56,28 70,40c15,13 48,31 76,39c28,8 62,28 78,44c15,16 43,32 62,35c18,4 53,22 77,40c25,19 58,37 75,41c17,3 50,21 74,39c24,18 56,36 73,40c16,4 50,22 75,40c25,18 57,36 73,40c15,4 47,22 72,40c24,19 58,37 74,41c16,3 35,13 43,22c7,9 45,30 84,48c39,18 74,39 77,48c3,8 31,23 62,32c32,9 67,27 80,41c12,13 45,31 72,39c27,8 60,26 73,40c13,14 41,30 62,36c22,5 60,26 84,45c25,19 53,34 63,34c10,0 40,16 67,35c27,19 65,40 84,46c19,7 47,22 62,34c15,13 49,31 75,41c26,9 60,28 74,41c15,13 48,31 75,39c26,8 60,25 74,39c14,13 45,31 70,40c25,9 56,26 70,40c14,13 44,28 66,34c23,6 55,24 70,40c16,16 48,34 72,40c23,7 57,25 75,40c17,16 48,33 68,39c20,5 60,26 89,46c29,20 60,36 70,36c10,0 31,11 47,24c32,27 86,56 104,56c7,0 27,12 46,26c18,14 58,36 87,49c30,13 57,29 61,35c4,6 32,22 63,36c31,14 66,33 77,44c11,10 45,28 76,39c31,12 66,32 78,45c13,14 41,28 63,31c24,4 55,20 77,40c20,17 50,35 66,39c17,4 48,21 69,38c21,17 55,37 75,44c20,7 61,28 90,48c29,20 61,36 72,36c10,0 33,13 51,29c18,15 51,34 73,42c22,8 56,26 75,40c19,15 53,32 75,39c22,7 51,23 65,36c14,13 45,30 70,39c25,9 56,27 70,40c14,14 48,31 74,39c27,8 63,28 80,44c17,16 46,32 64,36c19,3 52,22 75,41c22,19 49,35 59,35c24,0 54,16 98,52c19,15 44,28 55,28c11,0 46,18 78,39c32,22 71,42 87,46c21,5 30,13 30,26c0,21 -53,122 -81,154c-9,11 -24,36 -32,56c-8,20 -31,57 -51,83c-20,26 -36,54 -36,61c0,8 -13,29 -29,47c-15,18 -32,43 -35,56c-4,12 -25,43 -47,68c-21,25 -39,53 -39,62c0,10 -13,33 -29,52c-15,19 -36,51 -46,70c-10,19 -31,50 -46,68c-16,18 -29,39 -29,46c0,7 -14,31 -31,52c-17,22 -41,59 -54,84c-13,25 -32,54 -44,64c-12,11 -21,24 -21,30c0,11 -78,133 -119,186c-10,14 -26,43 -35,64c-9,21 -29,53 -45,71c-16,19 -32,44 -36,57c-4,13 -19,36 -32,52c-13,15 -31,45 -39,65c-8,20 -28,50 -44,66c-15,17 -33,48 -39,71c-6,22 -22,51 -36,64c-13,12 -31,44 -40,70c-9,26 -25,56 -36,66c-11,10 -29,38 -40,63c-11,25 -28,53 -39,63c-10,10 -32,37 -49,60c-59,83 -229,225 -280,234c-20,4 -45,14 -56,24c-30,27 -81,50 -108,50c-14,0 -43,6 -65,14c-22,8 -43,12 -46,9z"/>
   <path fill="#1c41ff" stroke="#6b83e0" id="svg_4" d="m3140,12256c-41,-20 -89,-36 -125,-40c-42,-5 -77,-18 -117,-42c-31,-19 -68,-34 -82,-34c-18,0 -42,-15 -76,-48c-54,-52 -150,-178 -150,-196c0,-6 -13,-27 -29,-46c-15,-19 -38,-54 -49,-77c-12,-23 -27,-45 -32,-48c-6,-4 -23,-31 -37,-61c-14,-30 -29,-54 -33,-54c-4,0 -24,-31 -44,-70c-20,-38 -41,-72 -46,-75c-6,-4 -17,-22 -25,-42c-8,-19 -28,-50 -44,-68c-16,-18 -34,-51 -41,-72c-7,-21 -23,-49 -35,-63c-13,-14 -33,-45 -45,-70c-12,-25 -30,-54 -40,-65c-9,-11 -22,-34 -28,-51c-5,-17 -26,-52 -45,-77c-19,-25 -38,-58 -41,-74c-4,-15 -16,-37 -27,-49c-10,-11 -33,-47 -49,-80c-32,-60 -87,-154 -127,-215c-13,-19 -23,-42 -23,-51c0,-10 -13,-32 -28,-50c-16,-18 -45,-64 -66,-101c-29,-52 -36,-74 -31,-97c7,-34 18,-44 67,-59c20,-7 53,-25 74,-41c20,-17 52,-34 71,-39c19,-5 52,-26 74,-45c22,-21 50,-36 63,-36c14,0 44,-17 71,-40c31,-26 56,-40 75,-40c17,0 44,-13 70,-35c23,-19 59,-39 80,-45c21,-6 44,-18 51,-27c8,-9 46,-31 85,-49c40,-18 75,-37 78,-43c4,-6 28,-20 53,-31c26,-11 61,-31 77,-44c17,-12 45,-28 62,-33c18,-6 55,-27 84,-47c29,-20 61,-36 71,-36c10,0 36,-15 57,-34c20,-19 55,-39 78,-45c22,-6 51,-22 64,-36c13,-14 47,-32 76,-41c28,-8 61,-26 74,-39c13,-13 44,-31 71,-40c26,-9 53,-23 61,-32c7,-9 38,-27 68,-40c30,-14 68,-34 84,-46c17,-12 55,-34 86,-50c104,-53 175,-93 214,-120c21,-15 47,-27 57,-27c10,0 33,-13 51,-29c41,-35 71,-51 97,-51c11,0 36,-14 55,-30c18,-17 53,-37 77,-45c24,-9 53,-24 64,-35c11,-10 42,-28 69,-40c27,-11 62,-31 78,-45c16,-13 44,-28 62,-33c18,-5 57,-26 86,-46c29,-20 61,-36 71,-36c10,0 36,-15 57,-34c20,-19 55,-39 78,-45c22,-6 49,-20 60,-32c24,-26 67,-49 93,-49c10,0 38,-16 61,-35c23,-19 58,-39 79,-45c21,-5 46,-19 56,-30c9,-10 38,-27 64,-36c25,-9 62,-29 81,-44c19,-15 50,-32 69,-38c19,-7 49,-23 67,-37c18,-14 55,-35 81,-46c26,-11 57,-29 68,-39c11,-11 40,-26 64,-35c24,-8 58,-28 77,-44c18,-17 49,-33 68,-36c19,-4 46,-20 62,-36c15,-16 50,-35 79,-43c28,-9 61,-26 73,-39c13,-13 42,-30 65,-37c23,-8 56,-23 72,-35c17,-12 50,-32 75,-45c25,-12 59,-33 77,-46c17,-13 38,-24 46,-24c8,0 45,-20 83,-45c37,-25 74,-45 82,-45c7,0 34,-16 59,-35c25,-19 60,-37 78,-41c18,-3 46,-19 61,-35c17,-17 50,-36 80,-45c28,-8 59,-23 69,-34c10,-11 38,-27 64,-36c25,-9 62,-29 81,-44c19,-14 55,-34 80,-44c25,-10 54,-26 65,-36c11,-10 40,-26 65,-36c25,-10 60,-29 78,-42c36,-28 125,-52 190,-52c52,0 99,19 154,62c66,53 229,221 239,246c5,13 9,47 9,77c0,48 -4,59 -41,102c-22,26 -55,62 -72,79c-18,16 -57,57 -88,90c-31,32 -116,115 -189,184c-74,69 -148,139 -165,155c-18,17 -62,55 -100,85c-37,30 -97,82 -132,115c-36,33 -73,64 -82,69c-9,5 -35,26 -58,48c-24,21 -47,38 -52,38c-5,0 -31,18 -58,40c-26,21 -64,52 -83,68c-19,15 -55,40 -80,54c-25,14 -54,35 -64,47c-11,12 -27,21 -38,21c-10,0 -35,16 -57,35c-21,19 -54,42 -73,50c-20,8 -49,25 -64,38c-16,13 -39,27 -51,31c-12,4 -44,22 -70,40c-27,18 -64,38 -83,45c-19,6 -52,23 -73,37c-21,14 -63,33 -95,43c-31,10 -74,29 -95,44c-21,14 -59,29 -85,33c-25,4 -68,20 -95,36c-28,16 -75,34 -106,40c-31,5 -81,21 -111,35c-30,14 -84,32 -120,39c-36,8 -90,28 -120,43c-30,16 -84,35 -119,42c-40,7 -82,25 -113,46c-30,19 -62,33 -81,33c-16,0 -58,15 -91,34c-34,18 -85,39 -114,45c-31,6 -69,23 -90,41c-21,17 -58,34 -83,38c-26,5 -70,23 -100,39c-30,17 -70,34 -89,38c-19,4 -60,21 -90,40c-30,18 -73,36 -94,39c-21,4 -55,20 -75,36c-20,16 -58,34 -86,40c-27,6 -70,24 -95,39c-25,15 -69,33 -97,40c-29,7 -69,26 -89,42c-20,16 -53,31 -73,35c-60,10 -70,14 -102,44c-19,17 -48,31 -73,34c-22,4 -66,22 -96,41c-30,19 -62,35 -71,35c-23,0 -89,28 -117,51c-13,10 -49,25 -80,34c-31,9 -69,27 -84,40c-15,13 -50,28 -78,34c-29,6 -68,24 -89,41c-21,17 -55,33 -77,37c-21,3 -70,24 -109,45c-38,22 -77,43 -84,47c-8,4 -24,20 -35,35c-29,39 -29,181 0,221c38,54 64,100 64,116c0,9 13,33 29,53c17,21 37,59 46,87c9,27 21,51 26,55c12,7 59,99 59,115c0,7 11,26 23,43c13,17 32,52 41,78c10,25 29,57 42,69c13,12 24,30 24,38c1,23 38,103 60,126c10,11 21,34 25,52c3,17 20,51 37,74c17,23 35,58 40,77c5,19 25,57 44,85c19,27 34,57 34,67c0,9 14,37 32,61c17,24 37,63 44,87c8,24 25,57 39,73c13,17 31,53 39,80c9,28 27,64 41,80c30,36 32,65 6,79c-31,16 -52,12 -121,-24z"/>
   <path fill="#1c41ff" stroke="#6b83e0" id="svg_5" d="m12492,12280c-33,-14 -36,-33 -13,-79c12,-22 21,-46 21,-54c0,-7 13,-33 28,-58c15,-24 34,-60 42,-79c7,-19 24,-50 37,-68c13,-17 33,-58 44,-89c10,-31 25,-64 33,-72c8,-9 26,-43 41,-76c14,-33 34,-69 45,-80c10,-11 23,-39 29,-61c6,-23 23,-58 37,-79c14,-21 34,-61 45,-90c11,-29 28,-60 40,-70c11,-10 25,-38 31,-63c6,-24 26,-61 44,-84c19,-22 34,-50 34,-63c0,-12 18,-50 40,-83c22,-33 40,-66 40,-73c0,-8 18,-41 40,-74c22,-33 40,-67 40,-76c0,-8 14,-34 32,-58c27,-38 61,-129 74,-201c3,-16 -6,-41 -25,-71c-24,-37 -44,-53 -118,-91c-49,-25 -103,-49 -120,-52c-17,-4 -52,-20 -77,-37c-26,-16 -68,-34 -93,-39c-26,-6 -61,-24 -79,-40c-21,-18 -53,-33 -88,-40c-31,-6 -69,-22 -84,-35c-15,-13 -54,-31 -87,-40c-32,-10 -76,-30 -98,-46c-21,-15 -59,-31 -84,-35c-24,-3 -56,-17 -71,-29c-38,-31 -61,-42 -110,-50c-25,-4 -57,-19 -75,-35c-18,-15 -56,-33 -87,-40c-30,-7 -73,-26 -95,-41c-22,-16 -61,-33 -87,-39c-26,-5 -67,-23 -90,-40c-25,-17 -67,-34 -98,-40c-32,-6 -64,-20 -80,-34c-14,-13 -50,-31 -80,-39c-30,-9 -70,-27 -88,-41c-19,-13 -57,-30 -85,-36c-29,-7 -77,-27 -107,-45c-30,-18 -75,-35 -100,-39c-24,-4 -59,-18 -77,-32c-17,-13 -60,-31 -95,-40c-35,-9 -88,-29 -118,-44c-30,-15 -77,-33 -104,-39c-26,-7 -74,-25 -105,-41c-32,-16 -85,-33 -118,-40c-34,-6 -82,-22 -106,-36c-25,-13 -77,-31 -115,-39c-38,-8 -96,-28 -128,-44c-33,-16 -77,-32 -99,-36c-46,-9 -72,-20 -100,-45c-11,-10 -40,-23 -65,-30c-25,-6 -65,-25 -90,-41c-25,-15 -65,-35 -89,-44c-23,-8 -56,-26 -72,-39c-16,-13 -45,-30 -66,-36c-21,-7 -49,-23 -63,-35c-14,-13 -43,-31 -65,-40c-22,-9 -53,-29 -70,-45c-16,-16 -46,-36 -65,-44c-20,-8 -44,-24 -55,-36c-10,-11 -38,-29 -62,-40c-24,-10 -46,-26 -49,-34c-3,-9 -27,-29 -52,-46c-26,-16 -66,-45 -88,-62c-23,-18 -61,-46 -84,-63c-23,-16 -61,-48 -84,-70c-66,-63 -196,-178 -220,-195c-91,-64 -491,-460 -565,-560c-46,-60 -56,-88 -47,-123c14,-57 257,-302 330,-332c73,-31 204,-14 274,36c24,17 59,35 78,41c20,5 55,24 79,42c24,19 55,36 70,40c15,4 44,20 64,35c20,15 52,34 71,41c19,7 44,22 56,32c12,10 45,28 74,39c30,11 66,31 82,44c15,13 44,29 65,36c21,6 55,27 76,45c20,19 46,34 58,34c25,0 54,15 99,52c19,15 42,28 51,28c9,0 40,16 69,36c29,20 66,41 84,46c17,6 47,23 66,38c19,14 51,33 70,40c19,8 49,24 65,36c17,12 53,32 82,44c28,12 59,30 69,41c9,10 36,24 58,30c23,6 58,24 79,41c21,16 54,34 73,40c19,5 50,23 69,39c19,17 50,35 70,40c20,6 51,24 70,40c19,17 51,35 71,41c21,5 54,22 73,38c20,15 52,33 71,40c19,8 49,26 66,40c17,15 51,32 77,39c25,7 56,24 68,37c13,13 40,29 60,34c21,6 56,25 78,44c23,19 56,36 78,39c25,4 50,18 68,37c16,17 47,35 69,41c22,6 60,26 84,45c25,19 52,34 61,34c9,0 40,18 70,40c29,22 61,40 70,40c9,0 33,12 52,26c19,14 61,39 94,56c129,64 183,94 210,115c15,13 45,28 66,33c22,6 54,24 72,39c17,16 49,33 70,39c21,6 53,24 72,41c19,16 50,34 68,39c18,5 55,26 81,46c26,20 55,36 65,36c9,0 33,12 52,26c19,14 54,35 79,47c25,11 59,30 76,43c17,13 50,31 75,39c24,9 55,26 69,39c14,13 43,29 64,36c22,7 59,28 83,46c25,19 55,34 69,34c13,0 41,15 61,34c21,18 54,38 74,44c19,5 57,26 83,46c26,20 57,36 69,36c12,0 42,16 66,35c24,19 60,39 81,45c20,5 47,21 60,35c12,13 44,31 70,40c26,9 57,27 70,40c13,13 46,31 74,39c29,9 62,26 75,40c12,13 41,29 65,35c23,5 54,23 70,40c16,17 44,33 61,37c18,3 54,23 80,45c26,21 53,39 61,39c30,0 64,25 74,55c13,38 6,59 -32,103c-15,18 -35,49 -43,70c-9,20 -24,46 -34,57c-10,11 -23,35 -29,53c-7,19 -25,49 -42,68c-16,19 -33,47 -36,62c-4,15 -18,43 -32,62c-25,33 -42,62 -116,201c-19,36 -41,71 -50,78c-8,7 -20,29 -27,49c-6,20 -24,54 -41,75c-16,20 -35,52 -43,70c-7,18 -30,57 -49,86c-20,29 -36,59 -36,65c0,7 -11,23 -25,36c-13,12 -30,39 -36,59c-6,20 -23,51 -38,69c-36,47 -86,128 -115,187c-13,28 -38,63 -55,79c-17,17 -31,35 -31,42c0,6 -10,24 -22,40c-13,16 -32,47 -43,71c-11,23 -55,80 -97,126c-66,72 -84,86 -124,96c-26,7 -61,23 -79,37c-22,16 -61,30 -116,40c-52,10 -94,25 -113,39c-38,29 -74,37 -104,25z"/>
   <path fill="#1c41ff" stroke="#6b83e0" id="svg_6" d="m11757,12200c-15,-5 -40,-19 -57,-33c-20,-17 -52,-29 -99,-37c-45,-7 -86,-22 -113,-40c-28,-18 -66,-32 -111,-38c-42,-7 -88,-22 -121,-42c-39,-22 -73,-32 -121,-37c-47,-4 -78,-14 -108,-33c-30,-19 -68,-31 -127,-39c-52,-8 -114,-26 -160,-46c-54,-24 -96,-36 -151,-40c-42,-4 -89,-13 -105,-22c-50,-26 -109,-42 -190,-54c-49,-6 -103,-22 -141,-40c-44,-21 -86,-33 -146,-39c-62,-6 -99,-16 -143,-39c-37,-19 -85,-34 -130,-40c-40,-5 -91,-20 -120,-35c-27,-14 -82,-32 -123,-41c-40,-8 -85,-23 -100,-33c-34,-24 -76,-39 -128,-47c-23,-4 -60,-20 -82,-36c-23,-16 -62,-34 -88,-39c-27,-6 -66,-24 -88,-40c-23,-15 -66,-36 -97,-45c-31,-9 -62,-23 -70,-32c-7,-9 -40,-29 -74,-44c-33,-15 -66,-35 -74,-44c-7,-9 -29,-23 -47,-30c-19,-8 -53,-30 -75,-50c-23,-19 -49,-35 -58,-35c-10,0 -30,-12 -46,-27c-16,-15 -48,-40 -71,-55c-24,-15 -43,-32 -43,-36c0,-5 -17,-21 -37,-35c-54,-36 -224,-204 -262,-257c-17,-25 -40,-56 -51,-70c-31,-39 -50,-166 -50,-340c0,-85 -5,-173 -10,-195c-9,-40 -15,-1753 -6,-1763c19,-18 75,26 222,176c90,92 211,208 269,257c58,50 148,127 201,173c52,45 101,82 108,82c7,0 23,12 37,26c13,14 38,33 54,41c17,8 44,28 60,43c17,14 51,39 78,54c26,15 47,31 47,36c0,4 16,14 35,20c19,6 59,29 87,51c29,21 57,39 63,39c5,0 36,18 69,40c32,22 67,40 77,40c9,0 31,11 47,24c16,14 52,34 80,45c28,11 75,34 105,51c29,16 65,30 79,30c14,0 40,11 59,25c57,41 82,52 134,59c27,3 65,17 85,31c42,29 91,45 136,45c17,0 56,13 87,30c42,22 84,34 162,45c72,10 125,24 168,44c51,24 80,30 163,35c94,6 127,14 211,52c18,8 91,19 165,24c107,8 143,15 183,35c59,28 78,32 206,44c75,7 109,16 156,39c44,22 83,33 147,40c73,8 92,14 115,36c18,17 48,30 94,40c38,7 85,26 106,41c22,14 60,33 85,40c25,8 63,27 83,43c21,16 51,33 68,37c16,3 50,22 75,40c25,18 58,37 72,40c15,4 35,16 45,27c10,11 42,31 72,44c29,13 70,39 90,57c20,17 46,39 59,47c37,24 54,90 46,179c-7,82 -14,102 -49,141c-12,14 -26,39 -29,55c-4,17 -21,47 -37,68c-17,20 -35,52 -41,70c-6,17 -21,43 -34,57c-13,14 -32,46 -43,71c-11,25 -29,54 -41,64c-11,10 -25,35 -30,56c-6,21 -26,56 -44,78c-18,22 -36,55 -40,74c-4,19 -16,43 -28,53c-11,11 -32,44 -45,74c-14,30 -33,64 -43,75c-11,11 -26,40 -35,64c-8,24 -28,59 -45,77c-16,19 -30,45 -30,58c0,13 -16,44 -36,70c-19,25 -40,61 -46,78c-20,57 -116,192 -150,211c-35,18 -75,21 -121,7z"/>
   <path fill="#1c41ff" stroke="#6b83e0" id="svg_7" d="m3806,12170c-18,-17 -41,-49 -50,-71c-9,-23 -28,-55 -41,-73c-13,-17 -26,-42 -30,-56c-3,-14 -22,-45 -41,-69c-18,-24 -38,-60 -44,-81c-5,-20 -21,-47 -35,-60c-14,-13 -33,-48 -41,-78c-9,-29 -23,-56 -31,-59c-9,-3 -27,-31 -40,-62c-14,-31 -35,-67 -48,-81c-12,-14 -28,-42 -34,-62c-7,-20 -19,-42 -27,-49c-18,-15 -54,-83 -54,-102c0,-7 -11,-24 -24,-36c-13,-13 -34,-46 -46,-74c-13,-29 -33,-65 -45,-82c-13,-16 -26,-41 -30,-55c-4,-14 -21,-42 -37,-63c-16,-21 -35,-55 -40,-75c-6,-20 -24,-56 -41,-81c-24,-35 -31,-57 -35,-111c-7,-105 1,-131 63,-194c30,-31 72,-64 93,-75c20,-10 48,-31 61,-45c14,-14 43,-31 65,-37c23,-6 55,-23 71,-39c17,-16 50,-34 75,-40c24,-7 59,-25 77,-41c18,-15 50,-31 70,-34c46,-8 70,-18 104,-46c16,-12 58,-27 105,-36c44,-8 88,-23 99,-33c33,-29 56,-37 133,-44c46,-5 99,-19 143,-37c56,-24 95,-32 182,-39c143,-12 208,-24 282,-50c38,-13 106,-24 188,-31c94,-7 145,-16 195,-35c37,-14 119,-32 182,-40c88,-12 127,-23 165,-44c33,-18 72,-30 115,-35c40,-4 78,-15 100,-29c46,-29 85,-43 141,-51c27,-3 68,-20 100,-40c31,-21 66,-35 84,-35c18,0 53,-14 85,-35c30,-19 69,-38 86,-41c18,-3 57,-21 86,-40c29,-19 58,-34 66,-34c18,0 72,-29 105,-56c16,-13 37,-24 46,-24c10,0 45,-18 77,-40c33,-22 67,-40 76,-40c9,0 37,-18 62,-39c25,-22 56,-43 68,-46c13,-4 34,-18 48,-31c14,-12 41,-30 61,-38c19,-8 42,-23 50,-32c8,-10 37,-32 64,-51c132,-89 148,-101 310,-238c52,-44 124,-105 161,-135c36,-30 147,-135 246,-233c98,-98 183,-177 188,-175c6,2 10,433 12,1083c2,954 0,1084 -13,1115c-9,19 -22,59 -29,88c-15,64 -73,140 -177,230c-21,18 -78,68 -128,111c-49,43 -103,85 -120,94c-16,8 -43,29 -59,46c-17,17 -38,31 -48,31c-10,0 -35,15 -55,34c-21,18 -54,41 -73,51c-19,10 -48,28 -65,40c-16,13 -40,26 -52,29c-12,4 -44,22 -70,40c-27,18 -61,36 -78,40c-16,4 -55,22 -86,41c-31,19 -81,40 -110,46c-30,6 -67,22 -82,35c-28,24 -85,44 -123,44c-12,0 -48,14 -80,31c-35,18 -91,36 -142,45c-53,9 -97,23 -122,40c-27,18 -62,29 -117,36c-53,7 -95,19 -129,38c-28,16 -73,31 -100,35c-78,10 -136,26 -180,52c-27,15 -69,27 -120,33c-54,6 -98,18 -139,39c-38,19 -89,34 -139,40c-53,8 -95,20 -124,37c-31,18 -70,29 -126,36c-55,7 -99,19 -140,40c-40,20 -86,33 -136,39c-50,7 -94,19 -134,40c-41,21 -83,33 -144,41c-60,7 -105,19 -145,40c-49,24 -157,47 -228,48c-3,0 -23,14 -44,30c-48,38 -75,38 -119,0z"/>
   <path fill="#1c41ff" stroke="#6b83e0" id="svg_8" d="m10140,6963c-8,-3 -26,-16 -40,-29c-14,-13 -45,-30 -70,-39c-25,-9 -61,-28 -80,-44c-19,-15 -49,-32 -66,-38c-18,-6 -55,-27 -84,-47c-29,-20 -58,-36 -65,-36c-8,0 -27,-11 -43,-25c-17,-14 -54,-36 -84,-49c-30,-13 -60,-31 -67,-39c-7,-9 -34,-24 -59,-33c-26,-10 -60,-30 -77,-45c-16,-15 -46,-30 -65,-34c-19,-4 -52,-22 -73,-40c-21,-18 -51,-36 -65,-40c-15,-4 -53,-24 -86,-46c-32,-21 -64,-39 -72,-39c-7,0 -29,-14 -48,-30c-18,-17 -53,-37 -77,-45c-24,-9 -55,-26 -69,-39c-14,-13 -43,-29 -65,-36c-22,-7 -53,-25 -70,-40c-16,-16 -47,-33 -68,-38c-21,-6 -53,-24 -73,-41c-19,-17 -47,-34 -62,-37c-15,-4 -47,-22 -72,-41c-24,-18 -56,-36 -70,-40c-14,-3 -45,-21 -69,-39c-24,-19 -50,-34 -57,-34c-6,0 -35,-16 -64,-36c-29,-20 -68,-40 -85,-45c-18,-5 -45,-19 -59,-30c-23,-18 -27,-28 -24,-63c3,-39 5,-42 63,-71c33,-16 73,-40 89,-52c16,-13 36,-23 46,-23c9,0 38,-16 64,-36c26,-20 63,-40 81,-45c19,-5 53,-25 75,-44c23,-19 51,-35 62,-35c25,0 55,-16 96,-51c18,-16 41,-29 50,-29c10,0 36,-14 59,-30c22,-17 60,-37 84,-45c23,-9 56,-26 73,-39c17,-13 51,-32 76,-43c25,-11 56,-30 69,-42c13,-11 41,-26 61,-31c21,-6 54,-23 75,-40c21,-16 53,-34 71,-39c19,-5 51,-23 72,-40c21,-16 51,-33 68,-37c16,-3 43,-19 59,-34c37,-34 67,-50 93,-50c11,0 39,-16 62,-35c22,-19 56,-37 75,-41c18,-3 43,-17 56,-30c12,-13 47,-33 78,-45c31,-11 67,-31 81,-43c14,-13 42,-29 63,-36c21,-6 50,-23 66,-36c16,-13 48,-31 71,-39c23,-8 58,-28 78,-43c21,-16 52,-34 70,-40c19,-6 47,-23 63,-36c17,-14 49,-31 72,-37c23,-7 56,-25 73,-41c17,-16 53,-36 80,-44c26,-8 60,-25 74,-39c14,-13 45,-31 70,-40c24,-9 54,-24 65,-35c11,-10 40,-26 65,-36c25,-10 67,-33 94,-51c26,-18 54,-33 61,-33c6,0 30,-13 52,-29c21,-15 61,-38 88,-50c28,-12 59,-31 70,-41c11,-11 39,-26 62,-34c22,-8 62,-30 88,-50c25,-20 55,-36 64,-36c10,0 38,-15 61,-34c24,-19 58,-37 76,-40c17,-4 48,-20 69,-36c20,-16 53,-34 73,-41c20,-6 51,-22 69,-35c18,-14 54,-34 80,-45c26,-11 59,-31 73,-44c14,-12 40,-26 58,-30c18,-4 52,-22 76,-40c24,-18 57,-36 73,-39c17,-4 43,-20 59,-37c16,-17 50,-36 80,-45c29,-8 63,-27 79,-44c16,-17 43,-31 65,-35c21,-4 48,-17 61,-31c12,-13 47,-33 78,-45c31,-11 65,-29 76,-39c11,-10 43,-28 70,-40c28,-12 59,-30 70,-40c11,-11 39,-26 62,-34c22,-8 62,-30 88,-50c66,-51 96,-49 151,12c26,28 56,77 75,121c36,87 36,118 -5,271l-26,95l-107,108c-114,113 -294,275 -383,342c-49,37 -99,78 -195,161c-65,56 -117,98 -160,127c-79,55 -111,79 -145,113c-20,19 -41,34 -48,34c-7,0 -29,15 -49,34c-21,18 -49,39 -63,46c-27,14 -72,50 -151,118c-27,23 -55,42 -63,42c-7,0 -23,12 -37,26c-13,14 -37,33 -54,41c-16,9 -47,31 -68,49c-20,19 -41,34 -46,34c-6,0 -31,18 -56,40c-25,22 -52,40 -59,40c-7,0 -23,12 -37,26c-13,14 -46,37 -72,50c-26,14 -51,32 -54,40c-3,8 -24,24 -47,36c-22,11 -56,34 -74,49c-18,16 -37,29 -42,29c-6,0 -27,16 -49,35c-21,19 -54,41 -73,49c-19,8 -41,22 -48,31c-8,9 -30,25 -49,35c-20,10 -45,28 -56,40c-11,12 -38,31 -60,42c-22,12 -56,34 -75,49c-19,16 -40,29 -46,29c-6,0 -31,17 -55,38c-24,21 -58,44 -76,51c-17,7 -40,22 -50,33c-10,11 -35,28 -56,38c-77,38 -227,177 -304,282c-32,44 -73,97 -90,118c-21,24 -37,56 -44,91c-6,30 -18,67 -26,83c-18,35 -13,77 20,171c21,61 32,76 86,122c84,72 106,76 351,70c208,-4 247,-10 301,-48c15,-11 51,-24 80,-31c30,-6 65,-21 79,-33c34,-30 64,-45 92,-45c21,0 37,-9 117,-62c14,-10 37,-18 51,-18c14,0 45,-16 69,-35c24,-19 58,-37 77,-41c19,-3 50,-19 70,-35c20,-16 55,-34 78,-40c22,-6 58,-26 78,-45c42,-37 96,-46 118,-19c10,12 6,28 -24,87c-63,127 -126,208 -236,304c-129,112 -152,130 -190,149c-19,9 -44,26 -55,36c-11,10 -38,25 -59,34c-22,9 -55,30 -75,45c-20,17 -55,32 -79,36c-23,4 -60,19 -82,35c-21,15 -66,35 -100,44c-34,9 -79,27 -99,41c-22,14 -65,29 -102,35c-63,10 -137,32 -211,63c-39,17 -53,18 -78,9z"/>
   <path fill="#1c41ff" stroke="#6b83e0" id="svg_9" d="m5505,6939c-66,-27 -144,-49 -175,-49c-14,0 -56,-16 -94,-35c-39,-19 -77,-35 -85,-35c-35,0 -91,-22 -125,-49c-19,-16 -52,-31 -73,-35c-21,-3 -58,-22 -82,-41c-24,-19 -54,-35 -67,-35c-12,0 -43,-18 -68,-39c-25,-22 -56,-43 -68,-47c-13,-3 -40,-22 -61,-40c-20,-19 -41,-34 -47,-34c-14,0 -189,-180 -232,-239c-21,-29 -41,-64 -44,-79c-4,-15 -22,-41 -40,-59c-36,-34 -41,-52 -24,-84c14,-26 50,-24 91,6c46,33 105,65 121,65c7,0 35,15 61,34c27,19 63,38 80,41c18,4 55,22 82,40c28,19 69,39 91,44c23,6 47,17 53,25c12,14 72,42 111,50c14,3 50,21 80,41c32,21 67,35 85,35c18,0 51,13 76,29c70,46 153,56 435,52l101,-1l62,-42c72,-48 138,-126 147,-173c3,-19 4,-76 2,-128c-3,-90 -5,-97 -39,-148c-20,-30 -38,-60 -40,-66c-18,-62 -340,-383 -384,-383c-7,0 -32,-16 -55,-35c-23,-19 -46,-35 -50,-35c-5,0 -29,-18 -54,-39c-25,-22 -55,-43 -68,-47c-12,-3 -44,-24 -71,-45c-27,-22 -53,-39 -59,-39c-6,0 -28,-16 -49,-35c-22,-19 -45,-35 -52,-35c-7,0 -34,-18 -61,-40c-26,-22 -52,-40 -56,-40c-5,0 -30,-18 -55,-40c-25,-22 -52,-40 -60,-40c-8,0 -35,-18 -60,-40c-25,-22 -52,-40 -59,-40c-7,0 -25,-14 -42,-31c-16,-17 -42,-38 -59,-46c-16,-9 -45,-29 -63,-44c-18,-16 -39,-29 -47,-29c-8,0 -37,-19 -65,-42c-90,-77 -114,-95 -156,-116c-22,-11 -47,-28 -54,-37c-8,-9 -37,-32 -65,-51c-51,-35 -93,-66 -157,-116c-19,-16 -39,-28 -44,-28c-6,0 -30,-19 -55,-42c-60,-56 -139,-118 -152,-118c-5,0 -29,-18 -53,-40c-24,-22 -49,-40 -55,-40c-7,0 -28,-17 -49,-37c-20,-21 -60,-56 -88,-78c-29,-22 -72,-56 -96,-75c-24,-19 -70,-55 -102,-80c-32,-25 -74,-61 -94,-80c-19,-20 -96,-90 -170,-157c-179,-160 -180,-161 -240,-286l-52,-107l4,-89c3,-80 6,-93 29,-118c14,-15 38,-50 53,-76c47,-82 123,-97 182,-36c15,16 46,34 69,40c22,6 57,24 78,41c21,16 55,34 75,40c20,5 51,22 67,38c17,15 47,33 67,39c20,7 53,25 74,42c20,16 54,33 74,39c21,6 44,17 51,26c16,19 83,54 103,54c9,0 31,14 50,30c18,17 53,37 77,45c24,9 55,26 69,39c14,13 48,31 76,40c28,9 61,28 74,41c13,14 39,28 57,31c19,4 55,24 79,45c25,22 54,39 65,39c25,0 57,16 89,45c14,12 42,28 62,34c20,7 49,22 64,34c27,22 88,55 211,116c34,17 65,36 69,42c3,6 31,22 61,36c31,13 69,34 87,47c17,13 48,29 69,36c21,7 53,25 71,41c18,15 52,32 76,38c24,5 56,23 74,39c17,17 49,35 71,41c23,6 54,24 70,41c16,16 43,33 62,36c18,3 52,21 76,39c23,17 53,36 67,40c28,9 127,64 198,111c26,17 65,37 87,44c22,7 51,23 65,35c32,29 64,45 89,45c12,0 38,15 58,34c21,18 53,37 71,41c19,4 48,20 67,36c18,16 52,36 75,44c23,8 59,28 79,44c20,16 50,33 67,37c16,3 49,22 73,40c24,19 50,34 57,34c6,0 34,15 60,33c27,19 67,40 89,47c22,7 56,25 75,40c19,15 50,33 68,39c19,6 49,24 67,40c19,16 51,32 73,36c25,4 50,17 68,36c15,16 46,34 69,40c22,6 57,24 78,40c20,17 52,35 70,41c17,6 54,26 81,45c26,18 54,33 61,33c7,0 35,15 61,33c27,18 65,39 84,47c19,7 44,21 55,31c11,9 46,29 78,43c32,14 72,37 89,51c16,14 36,25 43,25c30,0 64,24 74,51c20,57 -27,119 -88,119c-11,0 -23,5 -26,11c-14,22 -89,69 -110,69c-12,0 -42,16 -66,35c-24,19 -57,37 -72,41c-16,3 -43,18 -60,33c-18,15 -48,33 -67,41c-19,7 -51,25 -70,40c-19,15 -51,32 -70,39c-19,6 -50,25 -69,41c-18,17 -50,34 -71,40c-20,5 -51,23 -68,39c-17,16 -46,34 -66,39c-19,6 -52,23 -73,40c-21,16 -59,37 -84,46c-26,9 -54,25 -64,36c-10,11 -34,25 -54,31c-20,7 -56,27 -80,46c-24,18 -52,33 -61,33c-10,0 -37,16 -60,35c-22,19 -57,39 -76,44c-19,5 -50,23 -69,40c-19,16 -50,34 -69,39c-19,6 -52,24 -73,40c-21,17 -50,34 -65,37c-15,4 -49,22 -75,41c-26,19 -53,34 -59,34c-6,0 -38,18 -70,40c-33,22 -66,40 -75,40c-9,0 -36,16 -60,35c-52,41 -97,45 -174,14z"/>
   <path fill="#1c41ff" stroke="#6b83e0" id="svg_10" d="m10335,6208c-107,-27 -124,-35 -132,-55c-9,-22 87,-109 134,-122c18,-5 51,-25 74,-44c22,-19 55,-38 73,-41c18,-4 43,-17 55,-30c12,-13 44,-32 69,-41c26,-10 65,-31 86,-46c22,-16 45,-29 52,-29c7,0 34,-16 60,-36c26,-20 61,-41 78,-47c17,-6 49,-25 71,-43c22,-18 54,-36 70,-39c17,-4 47,-21 68,-37c20,-16 52,-34 70,-40c17,-6 48,-23 67,-37c19,-15 51,-33 70,-40c19,-8 52,-27 72,-42c94,-73 164,-65 209,24c12,23 35,57 51,75c44,51 36,82 -27,105c-27,10 -59,27 -71,38c-11,10 -42,26 -70,36c-27,9 -70,31 -96,48c-26,18 -59,36 -75,40c-15,3 -42,17 -60,31c-17,13 -56,33 -86,44c-30,11 -60,27 -67,35c-7,8 -37,24 -68,35c-32,12 -66,30 -77,40c-11,10 -42,28 -69,40c-27,11 -62,32 -78,45c-16,14 -42,28 -56,31c-15,4 -48,21 -73,39c-39,28 -204,87 -234,84c-5,-1 -46,-10 -90,-21z"/>
   <path fill="#1c41ff" stroke="#6b83e0" id="svg_11" d="m5240,6205c-19,-7 -45,-14 -57,-14c-12,-1 -43,-19 -68,-41c-25,-22 -55,-40 -66,-40c-26,0 -57,-16 -89,-45c-14,-13 -42,-28 -62,-33c-20,-6 -54,-24 -75,-40c-21,-17 -55,-35 -75,-40c-20,-6 -52,-22 -71,-36c-18,-14 -49,-31 -68,-37c-19,-7 -49,-23 -68,-37c-18,-14 -55,-33 -81,-43c-26,-10 -64,-29 -84,-43c-20,-14 -54,-30 -74,-37c-20,-6 -48,-21 -62,-33c-14,-12 -49,-32 -78,-45c-36,-17 -52,-30 -52,-44c0,-28 29,-84 57,-110c13,-12 33,-39 44,-59c15,-30 25,-38 47,-38c47,0 101,20 135,50c18,15 50,33 73,39c22,6 53,24 68,40c16,17 41,33 55,36c15,3 53,24 85,45c32,22 64,40 70,40c6,0 37,18 70,40c32,22 64,40 72,40c7,0 26,11 42,25c16,13 51,34 78,45c27,12 60,32 74,44c14,13 43,29 65,36c22,7 53,24 69,37c17,14 53,35 82,48c28,12 55,28 58,34c4,6 33,24 64,40c31,16 76,47 100,69c61,56 50,72 -65,100c-100,25 -162,27 -213,7z"/>
   <path fill="#1c41ff" stroke="#6b83e0" id="svg_12" d="m1885,1904c-150,-31 -320,-139 -425,-272c-103,-131 -153,-276 -153,-452c-1,-165 38,-270 140,-381c74,-80 155,-132 257,-166c73,-24 96,-27 226,-27c129,0 153,3 216,25l71,25l38,-59c21,-32 41,-56 45,-55c27,12 270,175 270,182c0,5 -18,33 -40,62c-22,29 -40,56 -40,59c0,3 21,33 46,67c124,166 173,388 129,577c-73,307 -417,490 -780,415zm208,-375c21,-5 53,-24 73,-41c69,-61 94,-147 74,-254l-12,-65l-45,66c-28,43 -48,63 -56,58c-135,-82 -267,-175 -261,-186c4,-6 27,-38 51,-69c24,-31 43,-60 43,-64c0,-17 -95,6 -133,32c-62,44 -91,111 -90,204c0,41 8,94 16,118c58,155 201,240 340,201z"/>
   <path fill="#1c41ff" stroke="#6b83e0" id="svg_13" d="m8075,1904c-150,-31 -320,-139 -425,-272c-103,-131 -153,-276 -153,-452c-1,-165 38,-270 140,-381c74,-80 155,-132 257,-166c73,-24 96,-27 226,-27c129,0 153,3 216,25l71,25l38,-59c21,-32 41,-56 45,-55c27,12 270,175 270,182c0,5 -18,33 -40,62c-22,29 -40,56 -40,59c0,3 21,33 46,67c124,166 173,388 129,577c-73,307 -417,490 -780,415zm208,-375c21,-5 53,-24 73,-41c69,-61 94,-147 74,-254l-12,-65l-45,66c-28,43 -48,63 -56,58c-135,-82 -267,-175 -261,-186c4,-6 27,-38 51,-69c24,-31 43,-60 43,-64c0,-17 -95,6 -133,32c-62,44 -91,111 -90,204c0,41 8,94 16,118c58,155 201,240 340,201z"/>
   <path fill="#1c41ff" stroke="#6b83e0" id="svg_14" d="m4803,1291c-230,-336 -421,-607 -424,-603c-9,10 -151,354 -147,356c2,2 38,19 80,38c172,81 258,213 259,399c1,180 -58,281 -206,351c-111,51 -168,58 -527,58l-327,0l-15,-52c-21,-71 -326,-1210 -326,-1215c0,-2 97,-2 216,-1l217,3l34,125c18,69 40,149 49,178l15,52l48,0l48,0l68,-175l68,-175l446,0l447,0l52,80l52,80l217,-2l218,-3l9,-77l8,-78l229,0c175,0 229,3 229,12c0,16 -178,1206 -185,1236c-5,22 -6,22 -219,22l-214,0l-419,-609zm-723,221c90,-44 67,-151 -42,-197c-26,-10 -71,-15 -146,-15l-109,0l31,115l31,115l100,0c75,0 109,-4 135,-18zm1239,-244c7,-62 14,-125 17,-140l6,-28l-106,0c-58,0 -106,2 -106,5c0,5 171,275 175,275c1,0 8,-51 14,-112z"/>
   <path fill="#1c41ff" stroke="#6b83e0" id="svg_15" d="m11789,1285c-232,-338 -423,-614 -425,-613c-6,7 -155,371 -152,372c2,2 38,19 80,38c172,81 258,213 259,399c1,180 -58,281 -206,351c-111,51 -168,58 -527,58l-327,0l-15,-52c-21,-71 -326,-1210 -326,-1215c0,-2 97,-2 216,-1l217,3l34,125c18,69 40,149 49,178l15,52l48,0l48,0l69,-177l69,-178l108,0c59,0 261,1 450,3l343,2l52,80l52,80l217,-2l218,-3l9,-77l8,-78l229,0c175,0 229,3 229,12c0,16 -178,1206 -185,1236c-5,22 -6,22 -219,22l-214,0l-423,-615zm-729,227c90,-44 67,-151 -42,-197c-26,-10 -71,-15 -146,-15l-109,0l31,115l31,115l100,0c75,0 109,-4 135,-18zm1249,-244c7,-62 14,-125 17,-140l6,-28l-106,0c-58,0 -106,2 -106,5c0,5 171,275 175,275c1,0 8,-51 14,-112z"/>
   <path fill="#1c41ff" stroke="#6b83e0" id="svg_16" d="m2940,1885c0,-3 -74,-282 -165,-620c-91,-337 -165,-621 -165,-629c0,-14 27,-16 213,-16l213,0l170,635l171,635l-219,0c-120,0 -218,-2 -218,-5z"/>
   <path fill="#1c41ff" stroke="#6b83e0" id="svg_17" d="m5979,1848c-6,-24 -26,-99 -45,-168c-19,-69 -34,-130 -34,-137c0,-10 42,-13 180,-13c138,0 180,-3 180,-12c-1,-7 -54,-209 -118,-448l-118,-435l214,-3c118,-1 216,-1 218,0c1,2 56,203 122,448l119,445l186,3l186,2l15,53c31,112 76,284 76,295c0,9 -146,12 -585,12l-584,0l-12,-42z"/>
   <path fill="#1c41ff" stroke="#6b83e0" id="svg_18" d="m9115,1878c-11,-33 -147,-546 -164,-620c-28,-118 -34,-202 -21,-283c40,-256 250,-388 595,-372c262,12 420,91 534,267c61,95 93,190 210,622l108,398l-221,0l-221,0l-94,-353c-100,-374 -128,-453 -181,-504c-44,-42 -113,-60 -178,-43c-77,19 -112,65 -112,147c0,38 159,666 187,739c4,12 -29,14 -216,14c-168,0 -223,-3 -226,-12z"/>
   <path fill="#1c41ff" stroke="#6b83e0" id="svg_19" d="m13181,1858c-6,-18 -81,-296 -167,-617c-86,-322 -158,-591 -161,-598c-4,-10 36,-13 211,-13l215,0l11,38c6,20 44,157 83,304l72,267l145,-305l145,-304l195,2l195,3l167,620c92,341 167,623 167,628c1,4 -96,7 -214,7l-214,0l-11,-42c-16,-59 -140,-521 -143,-532c-2,-4 -65,123 -142,283l-138,291l-203,0l-202,0l-11,-32z"/>
  </g>
 </g>
</svg>