<svg id="Capa_1" enable-background="new 0 0 512 512" height="512" viewBox="0 0 512 512" width="512" xmlns="http://www.w3.org/2000/svg" xmlns:xlink="http://www.w3.org/1999/xlink"><linearGradient id="SVGID_1_" gradientUnits="userSpaceOnUse" x1="256" x2="256" y1="496" y2="16"><stop offset="0" stop-color="#5558ff"/><stop offset="1" stop-color="#00c0ff"/></linearGradient><g><g><path d="m497 256c8.284 0 15-6.716 15-15 0-11.013 0-100.476 0-112.218 0-3.318-1.101-6.543-3.129-9.169-55.449-71.784-161.08-103.613-252.871-103.613-90.726 0-197.189 31.527-252.871 103.613-2.028 2.626-3.129 5.851-3.129 9.169v112.218c0 8.284 6.716 15 15 15h15v30h-15c-8.284 0-15 6.716-15 15v180c0 8.284 6.716 15 15 15h482c8.284 0 15-6.716 15-15 0-10.627 0-170.108 0-180 0-8.284-6.716-15-15-15h-15v-30zm-45-150.568c11.425 8.758 21.518 18.326 30 28.603v31.965h-30zm-61-34.161c10.862 4.385 21.229 9.291 31 14.672v80.057h-31zm-60-17.827c10.24 2.067 20.262 4.542 30 7.409v105.147h-30zm-60-7.145c10.109.396 20.125 1.187 30 2.356v117.345h-30zm-60 2.356c9.875-1.169 19.891-1.96 30-2.356v119.701h-30zm-60 12.198c9.738-2.867 19.76-5.341 30-7.409v112.556h-30zm-61 25.09c9.771-5.382 20.138-10.287 31-14.672v94.729h-31zm-60 48.091c8.482-10.276 18.575-19.844 30-28.603v60.569h-30zm0 181.966h30v62.138c-11.986 3.646-19.611 11.26-25.606 17.256-1.617 1.617-3.048 3.024-4.394 4.254zm452 150h-452v-32.131c11.989-3.646 19.61-11.266 25.606-17.263 7.355-7.355 10.962-10.606 19.394-10.606 8.551 0 12.546 3.5 20.069 10.779 8.382 8.112 19.861 19.221 40.931 19.221 21.213 0 32.422-11.209 40.606-19.394 7.355-7.355 10.962-10.606 19.394-10.606 8.431 0 12.038 3.251 19.391 10.604.002.001.003.003.005.005 8.184 8.184 19.393 19.391 40.604 19.391s32.42-11.207 40.604-19.391c.002-.001.003-.003.005-.005 7.353-7.353 10.96-10.604 19.391-10.604 8.432 0 12.039 3.251 19.394 10.606 8.184 8.185 19.393 19.394 40.606 19.394 21.07 0 32.549-11.109 40.931-19.221 7.523-7.279 11.518-10.779 20.069-10.779 8.432 0 12.039 3.251 19.394 10.606 5.996 5.997 13.618 13.617 25.606 17.263zm-241-180h-15c-8.284 0-15 6.716-15 15v77.138c-4.375-1.331-9.327-2.138-15-2.138-21.213 0-32.422 11.209-40.606 19.394-7.355 7.355-10.962 10.606-19.394 10.606-8.551 0-12.546-3.5-20.069-10.779-6.134-5.937-13.933-13.474-25.931-17.092v-77.129c0-8.284-6.716-15-15-15h-15v-30h181zm30 30v83.647c-4.775 4.362-8.422 6.353-15 6.353s-10.225-1.99-15-6.353v-83.647zm15-30h-15v-30h181v30h-15c-8.284 0-15 6.716-15 15v77.129c-11.998 3.618-19.797 11.155-25.931 17.092-7.523 7.279-11.518 10.779-20.069 10.779-8.432 0-12.039-3.251-19.394-10.606-8.184-8.185-19.393-19.394-40.606-19.394-5.673 0-10.625.807-15 2.138v-77.138c0-8.284-6.716-15-15-15zm196 113.647c-1.346-1.229-2.776-2.637-4.394-4.254-5.995-5.996-13.62-13.609-25.606-17.256v-62.137h30zm-452-173.647v-30h452v30z" fill="url(#SVGID_1_)"/></g></g></svg>