<svg width="317.62" height="296.85" xmlns="http://www.w3.org/2000/svg">

 <title>13</title>
 <g>
  <title>background</title>
  <rect fill="none" id="canvas_background" height="602" width="802" y="-1" x="-1"/>
 </g>
 <g>
  <title>Layer 1</title>
  <path id="svg_1" opacity="0.18" fill="#8368fd" d="m314.33,211.41c-0.21,1.13 -0.43,2.25 -0.67,3.38c-0.35,1.71 -0.73,3.42 -1.12,5.13a94.15,94.15 0 0 1 -20.46,40.36a74.32,74.32 0 0 1 -19.46,16.11a62.16,62.16 0 0 1 -6,3a66.66,66.66 0 0 1 -7,2.58a89.15,89.15 0 0 1 -13.71,3c-3.44,0.49 -6.93,0.82 -10.45,1.05c-15.11,1 -30.83,0.08 -46,1.5c-13.36,1.24 -25.76,5.46 -38.82,7.73c-20.62,3.57 -42.17,1 -62.35,-6.27a148.09,148.09 0 0 1 -45.76,-26.65c-0.27,-0.22 -0.53,-0.45 -0.79,-0.68q-4.86,-4.23 -9.3,-8.83a133,133 0 0 1 -11.37,-13.47c-0.15,-0.19 -0.29,-0.39 -0.43,-0.58a120.93,120.93 0 0 1 -10.14,-16.56a103.07,103.07 0 0 1 -11.43,-43.17c-1.24,-36.62 14.83,-69.39 33.43,-98.86c14.7,-23.3 31.54,-45.8 54.88,-61.35a111.45,111.45 0 0 1 55.48,-18.7a99.34,99.34 0 0 1 29.15,2.81l0,0a106.05,106.05 0 0 1 13.49,4.36q5,2 9.8,4.41a141.92,141.92 0 0 1 17.6,10.57c2.82,2 5.58,4 8.25,6.19c8.61,6.89 16.71,14.81 21.68,24.22c8.67,16.43 12.61,33.8 22.54,49.92c11.05,18 28.47,31.46 40,49.07c13.15,20.18 12.72,39.94 8.96,59.73z"/>
  <path id="svg_2" opacity="0.18" fill="#8368fd" d="m314.62,214.79c-0.35,1.71 -0.73,3.42 -1.12,5.13c-5.09,22.42 -19.55,45 -39.91,56.47a62.16,62.16 0 0 1 -6,3a66.66,66.66 0 0 1 -7,2.58a89.15,89.15 0 0 1 -13.71,3c-3.44,0.49 -6.93,0.82 -10.45,1.05c-15.11,1 -30.83,0.08 -46,1.5c-13.36,1.24 -25.76,5.46 -38.82,7.73c-20.62,3.57 -42.17,1 -62.35,-6.27a148.09,148.09 0 0 1 -45.76,-26.65c-0.27,-0.22 -0.53,-0.45 -0.79,-0.68a137.38,137.38 0 0 1 -20.67,-22.3a122,122 0 0 0 71.88,-22.73c6.86,-5 13.42,-10.8 21.51,-13.36c15.57,-4.94 31.84,3.32 46.91,9.62s34.5,10 46.11,-1.49c2.2,-2.17 4,-4.79 6.38,-6.72c3.14,-2.52 7.13,-3.68 11.06,-4.52c30.14,-6.48 61.01,2.68 88.73,14.64z"/>
  <path id="svg_3" opacity="0.18" fill="#8368fd" d="m293.08,260.28a74.32,74.32 0 0 1 -19.46,16.11a62.16,62.16 0 0 1 -6,3a66.66,66.66 0 0 1 -7,2.58a89.15,89.15 0 0 1 -13.71,3c-3.44,0.49 -6.93,0.82 -10.45,1.05c-15.11,1 -30.83,0.08 -46,1.5c-13.36,1.24 -25.76,5.46 -38.82,7.73c-20.62,3.57 -42.17,1 -62.35,-6.27a148.09,148.09 0 0 1 -45.76,-26.65c-0.27,-0.22 -0.53,-0.45 -0.79,-0.68q-4.86,-4.23 -9.3,-8.83c6.56,0.41 14.35,1.34 14.84,1.35a36,36 0 0 0 24.63,-8.78c2.71,-2.4 5.29,-5.35 8.84,-6c5.36,-1 10.64,3.59 16,2.45c2.65,-0.57 4.77,-2.46 6.92,-4.11a48.09,48.09 0 0 1 29.22,-9.9c2.49,6.47 -2.1,13.53 -7.35,18.06s-11.64,8.3 -14.6,14.57c4.94,5 13.43,2.09 19.51,-1.49c1.42,-0.83 3,-1.72 4.59,-1.52c2.28,0.27 3.73,2.46 5.18,4.24c5.06,6.2 13.79,8.45 21.44,6.85c4.35,-0.91 6.9,-3.2 10.47,-5.48c2.38,-1.53 0.67,-0.75 2.71,-0.39c2.2,0.39 1.92,1.67 4.81,-0.26a51.25,51.25 0 0 0 9,-7a51.55,51.55 0 0 0 5.91,-8.16l7,-11.23c3.52,-5.59 7,-11.19 10.14,-17a45.62,45.62 0 0 1 5.16,-8.41a39.06,39.06 0 0 1 7.33,-6.18c2.69,-1.91 5.69,-3.92 9,-3.59a9.41,9.41 0 0 1 6.53,4.35c3.46,5.11 3.21,12 1,17.78s-6,10.77 -9.45,15.86s-6.73,10.61 -7.51,16.73c-0.28,2.24 -0.18,4.67 1.13,6.51c2.89,4.07 8.86,3.31 12.52,1.29c5.41,-3 11.19,-5.91 17.42,-6.58c12.52,-1.48 25.35,6.68 37.25,3.5z"/>
 </g>
</svg>