<svg width="963.5" height="500" xmlns="http://www.w3.org/2000/svg">
 <title>greek_freak</title>

 <g>
  <title>background</title>
  <rect fill="none" id="canvas_background" height="602" width="802" y="-1" x="-1"/>
 </g>
 <g>
  <title>Layer 1</title>
  <path id="svg_1" fill="#6c63ff" d="m767.26,766.50795l0,0.95c0,0.25 0,0.51 -0.02,0.76a58.68911,58.68911 0 0 1 -12.87,35.6c-0.41,0.53 -0.84,1.04 -1.27991,1.55c-0.66016,0.78 -1.34009,1.53 -2.04,2.27c-0.06006,0.06 -0.12012,0.13 -0.19006,0.19l-0.02991,0.03c-0.08008,0.08 -0.16016,0.17 -0.24,0.25q-1.84515,1.90494 -3.87012,3.65c-0.27,0.23 -0.55,0.47 -0.84,0.7a58.79236,58.79236 0 0 1 -37.13,13.56c-0.1,0.01 -0.21,0.01 -0.31006,0.01l-0.34985,0c-0.1001,0 -0.20008,0 -0.30005,-0.01c-0.3501,0 -0.69006,-0.01 -1.04,-0.02a58.72831,58.72831 0 0 1 -36.90991,-14.19c-0.28,-0.23 -0.56006,-0.47 -0.83008,-0.72c-1.07007,-0.94 -2.1001,-1.93 -3.09009,-2.95c-0.07983,-0.08 -0.15991,-0.17 -0.24,-0.25l-0.02991,-0.03c-0.06994,-0.06 -0.13,-0.13 -0.19006,-0.19c-0.84,-0.88 -1.6499,-1.79 -2.42993,-2.72q-0.64508,-0.765 -1.26,-1.56a58.61459,58.61459 0 0 1 -12.53006,-35.17c-0.02,-0.24 -0.02,-0.49 -0.02,-0.74l0,-0.93c0,-0.11 0,-0.22 0.01,-0.33a58.69289,58.69289 0 0 1 12.31,-35.32q0.61486,-0.795 1.26,-1.56c0.79,-0.96 1.61987,-1.89 2.47,-2.8c0.06006,-0.07 0.12,-0.13 0.18994,-0.2c0,-0.01 0.01,-0.02 0.02,-0.03c0.08008,-0.08 0.16,-0.17 0.25,-0.25q1.66517,-1.725 3.47,-3.32c0.27,-0.25 0.55005,-0.49 0.83008,-0.72a58.77748,58.77748 0 0 1 37.69998,-14.03c0.1001,-0.01 0.21,-0.01 0.31006,-0.01l0.6499,0a58.80169,58.80169 0 0 1 37,13.4c0.28,0.24 0.56006,0.47 0.84009,0.71c1.46,1.24 2.86,2.56 4.18994,3.94c0.08008,0.08 0.16,0.17 0.24,0.25l0.02,0.02c0.07007,0.06 0.14,0.14 0.2,0.2c0.74,0.78 1.45007,1.59 2.14014,2.41c0.43994,0.51 0.85986,1.02 1.27991,1.55a58.69052,58.69052 0 0 1 12.64996,35.76a2.807,2.807 0 0 1 0.01,0.29z"/>
  <rect id="svg_2" fill="#fff" height="118" width="2" y="708.21795" x="706.75"/>
  <rect id="svg_3" fill="#fff" height="2" width="118.51001" y="766.21795" x="648.75"/>
  <path id="svg_4" fill="#fff" d="m682.73,766.21795a45.92906,45.92906 0 0 0 -19.92993,-36.88q-0.64508,0.765 -1.26,1.56a43.96072,43.96072 0 0 1 19.19993,35.32c0.01,0.33 0.01,0.66 0.01,1s0,0.67 -0.01,1a44.004,44.004 0 0 1 -18.97,35.17q0.61486,0.795 1.26,1.56a45.95941,45.95941 0 0 0 19.7,-36.73c0.02,-0.33 0.02,-0.67 0.02,-1s0,-0.67 -0.02,-1z"/>
  <path id="svg_5" fill="#fff" d="m734.76,768.21795c-0.01,-0.33 -0.01,-0.66 -0.01,-1s0,-0.67 0.01,-1a43.99751,43.99751 0 0 1 19.84,-35.76c-0.42,-0.53 -0.84,-1.04 -1.27991,-1.55a45.96454,45.96454 0 0 0 -20.55009,37.31c-0.02,0.33 -0.02,0.67 -0.02,1s0,0.67 0.02,1a45.95016,45.95016 0 0 0 20.32007,37.15c0.43994,-0.51 0.86987,-1.02 1.27991,-1.55a43.981,43.981 0 0 1 -19.60998,-35.6z"/>
  <rect id="svg_6" fill="#2f2e41" height="2.23999" width="963.5" y="863.65795"/>
  <rect id="svg_8" fill="#fff" height="2" width="832" y="415.00035" x="76.23895"/>
  <polygon id="svg_12" fill="#9d616a" points="390.955 704.422 388.184 759.842 417.279 765.384 425.592 712.735 390.955 704.422"/>
  <polygon id="svg_13" fill="#9d616a" points="535.046 722.434 541.974 768.155 568.298 768.155 562.756 719.663 535.046 722.434"/>
  <path id="svg_14" fill="#efefef" d="m396.49687,597.73895l-5.542,63.73283l-5.542,54.03436s20.78244,-8.313 40.17939,4.15648c0,0 12.46947,-2.771 9.69847,-56.80534l12.4695,-56.80533l-51.26336,-8.313z"/>
  <path id="svg_15" fill="#efefef" d="m508.72206,618.52137s8.313,49.87786 12.46947,54.03435c0,0 6.86206,44.60339 10.1953,55.87859a10.05517,10.05517 0 0 0 0.88867,2.31225c2.771,4.15649 33.25191,13.855 34.63741,-2.771s5.542,-44.33588 -8.313,-65.11832l-8.313,-52.64886l-41.56485,8.31299z"/>
  <path id="svg_16" fill="#efefef" d="m592.54459,612.28664c-1.3855,15.24045 -77.58779,12.46946 -91.44275,12.46946c-4.37839,0 -10.00291,-0.67888 -12.80231,-8.24363c-4.79377,-12.92679 -7.42608,-31.81111 -8.313,-39.19575c-0.35991,6.84427 -3.51922,23.41475 -11.41614,34.02787c-4.808,6.484 -12.76037,5.19561 -21.50293,3.713c-14.52,-2.46623 -43.38,-11.44422 -51.26336,-9.69848c-12.46947,2.771 -27.4745,3.048 -27.70993,0a35.6842,35.6842 0 0 1 0.02774,-5.00162c1.82861,-28.65213 28.37494,-106.32314 28.37494,-112.07281c0,-6.92748 12.46946,-36.0229 12.46946,-36.0229l127.46569,-15.24042s50.4874,136.19435 57.42909,169.72329c0.59532,2.89564 -1.20555,4.33661 -1.3165,5.54199z"/>
  <path id="svg_17" fill="#efefef" d="m421.4358,758.45649l-36.0229,-6.92748l3.46374,57.49809l28.40267,20.0897s-2.77099,-55.41985 4.15649,-70.66031z"/>
  <path id="svg_18" fill="#efefef" d="m568.2984,754.3s-18.01145,11.084 -33.25191,0l12.46951,51.26336l20.78244,-2.771s9.69844,-30.48091 -0.00004,-48.49236z"/>
  <path id="svg_19" fill="#2f2e41" d="m572.45489,797.25039s-29.09542,1.38549 -29.09542,4.15648l0,45.72138c0,4.15649 5.542,9.69847 4.15649,12.46947s8.313,9.69847 30.48092,5.542s13.855,-18.01145 13.855,-18.01145s-22.16798,-38.79391 -19.39699,-49.87788z"/>
  <path id="svg_20" fill="#2f2e41" d="m384.72015,797.94313s33.25191,0.69275 33.25191,3.46374l0,45.72138c0,4.15649 -5.542,9.69847 -4.15649,12.46947s-8.313,9.69847 -30.48092,5.542s-13.855,-18.01145 -13.855,-18.01145s18.01149,-38.10117 15.2405,-49.18514z"/>
  <path id="svg_21" fill="#6c63ff" d="m594.62283,612.97938c-1.38549,15.24046 -81.74428,16.626 -95.59924,16.626c-4.37838,0 -7.92466,-5.52812 -10.72406,-13.09287c14.867,-2.95129 78.80754,-14.99117 105.56155,-9.76782a25.43567,25.43567 0 0 1 0.76175,6.23469z"/>
  <path id="svg_22" fill="#6c63ff" d="m468.57041,611.34459c-4.808,6.484 -11.37487,10.7376 -20.11743,9.255c-14.52,-2.46622 -44.76547,-8.67322 -52.64886,-6.92748c-12.46947,2.771 -27.4745,-5.26495 -27.70993,-8.313a35.6842,35.6842 0 0 1 0.02774,-5.00162c29.16443,-0.78962 80.81607,-0.44324 100.44848,10.9871z"/>
  <path id="svg_23" fill="#9d616a" d="m414.50832,269.37631s-24.93893,-8.313 -47.10687,16.626l-4.15649,8.313s-31.86642,9.69848 -41.56489,16.626c0,0 -29.09542,-6.92748 -65.11832,0l-36.02291,-8.313s-69.27484,-48.49246 -76.20229,-18.01154s65.11832,41.56489 65.11832,41.56489l59.57634,16.62595s45.72138,11.084 63.73283,2.771c0,0 51.26336,-2.771 60.96184,-22.16794l20.78244,9.69847l0,-63.73283z"/>
  <path id="svg_24" fill="#9d616a" d="m500.40909,262.44883s51.26336,-5.542 70.66031,20.78244l40.17939,11.084s44.33588,-8.313 60.96183,-4.15648l36.02291,-9.69848s34.6374,-55.41985 54.03435,-40.17939s-45.72138,63.73283 -45.72138,63.73283l-87.28626,29.09542s-67.88932,5.542 -81.74428,-19.397l-15.24046,34.63743l-58.19084,-13.855l26.32443,-72.04577z"/>
  <circle id="svg_25" fill="#9d616a" r="37.4084" cy="218.11295" cx="451.91672"/>
  <path id="svg_26" fill="#9d616a" d="m432.51977,240.28089l0,30.48092l13.855,48.49237l41.56489,-48.49237s-11.084,-33.25191 -11.084,-38.7939s-44.33589,8.31298 -44.33589,8.31298z"/>
  <path id="svg_27" fill="#efefef" d="m542.66672,440.4851s-0.67922,5.00162 -6.983,5.45877c-12.62168,0.92835 -33.87566,3.07576 -47.74415,7.70344c-20.78244,6.92749 -83.12977,6.92749 -83.12977,6.92749l-4.0455,-125.49836l1.9673,-9.58753c-1.3855,-11.084 9.69847,-55.41985 9.69847,-55.41985l8.09109,-5.97149l7.579,-1.63487l2.34141,2.06438c0,18.45482 18.01145,36.0229 18.01145,36.0229c26.32443,-12.46947 37.4084,-40.17939 37.4084,-40.17939l7.80018,-1.15l8.16076,0.91439l7.3848,0.83135l-2.5633,2.17524l-1.3855,2.771c-0.08321,0.16625 0.069,-0.16625 0,0c-20.1729,42.798 4.18423,62.15351 19.39695,70.66031c6.30442,3.54695 6.92748,6.92748 6.92748,6.92748s5.6942,-1.70413 5.542,4.15649c-0.45732,18.96753 -3.90686,61.7931 1.38549,73.4313c6.92744,15.24046 4.15644,19.39695 4.15644,19.39695z"/>
  <path id="svg_28" fill="#2f2e41" d="m412.43007,192.82324a93.27626,93.27626 0 0 1 3.15894,-9.06556c1.57946,-3.62622 0,-14.50488 1.57946,-14.50488l6.31787,0l7.89732,-7.25245l4.7384,3.62622l6.31786,-3.62622l7.89733,3.62622l7.89733,-3.62622l12.63573,9.06556l3.15893,-1.81311l3.15893,5.43933l1.57947,0l6.31786,9.06555l3.15893,0l0,9.06556l3.15893,0l0,23.57044l-4.15649,16.267l-1.38549,-7.98178a0.504,0.504 0 0 0 -0.92806,-0.27248l-3.00675,4.67905l-1.92912,-7.3816a49.34078,49.34078 0 0 0 -18.44954,-27.60192c-11.68845,-8.48128 -28.58478,-12.52 -45.9589,11.41308l-3.15894,-12.69179z"/>
  <path id="svg_29" fill="#6c63ff" d="m420.52116,264.09757c-2.63231,16.00247 -10.58471,60.25514 -19.75686,70.97887l-0.11094,-3.3528c-1.3855,-11.084 8.313,-65.11832 8.313,-65.11832l11.5548,-2.50775z"/>
  <path id="svg_30" fill="#6c63ff" d="m493.66156,259.2206c-6.95522,13.13448 -26.87849,47.03762 -45.90133,44.79312c-18.35783,-2.16137 -19.882,-29.56653 -19.66011,-41.551l4.41965,-0.956c0,18.45482 16.626,34.194 16.626,34.194c26.32442,-12.46947 34.70641,-37.57465 34.70641,-37.57465l9.80938,1.09453z"/>
  <path id="svg_31" fill="#6c63ff" d="m539.203,338.65112s-0.15221,3.713 -0.30443,9.57366a57.66579,57.66579 0 0 1 -11.41681,-1.7733c-42.79819,-11.29183 -30.28676,-69.41342 -25.65944,-86.31653l7.3848,0.83135l0.01353,0c0.20769,0.194 0.42959,0.40176 0.65148,0.60962c-20.1729,42.798 2.84,63.60818 18.05272,72.115a57.88143,57.88143 0 0 0 11.27815,4.9602z"/>
  <path id="svg_32" fill="#6c63ff" d="m546.13046,445.33434s-4.143,0.15238 -10.44669,0.60953a329.94787,329.94787 0 0 1 -7.56477,-35.24692c-1.82861,-12.802 -1.24681,-44.29427 -0.63727,-64.24545c0.16642,-5.22335 0.31864,-9.67091 0.44311,-12.76054a57.88143,57.88143 0 0 0 11.27813,4.96018s-0.15221,3.713 -0.30443,9.57366c-0.45732,18.96753 -0.83143,60.53242 4.46092,72.17062c6.92754,15.24044 2.771,24.93892 2.771,24.93892z"/>
  <path id="svg_33" fill="#6c63ff" d="m416.58656,350.32029s44.33588,-21.21213 87.28627,0"/>
  <path id="svg_34" fill="#cacaca" d="m407.239,461.00035s13,-1 45,2s85,-17 85,-17"/>
  <path id="svg_35" fill="#6c63ff" d="m232.26,237.50795l0,0.95c0,0.25 0,0.51 -0.02,0.76a58.68911,58.68911 0 0 1 -12.87,35.6c-0.41,0.53 -0.84,1.04 -1.27991,1.55c-0.66016,0.78 -1.34009,1.53 -2.04,2.27c-0.06006,0.06 -0.12012,0.13 -0.19006,0.19l-0.02991,0.03c-0.08008,0.08 -0.16016,0.17 -0.24,0.25q-1.84515,1.90494 -3.87012,3.65c-0.27,0.23 -0.55,0.47 -0.84,0.7a58.79236,58.79236 0 0 1 -37.13,13.56c-0.1,0.01 -0.21,0.01 -0.31006,0.01l-0.34985,0c-0.1001,0 -0.20008,0 -0.3,-0.01c-0.3501,0 -0.69006,-0.01 -1.04,-0.02a58.72831,58.72831 0 0 1 -36.90991,-14.19c-0.28,-0.23 -0.56006,-0.47 -0.83008,-0.72c-1.07007,-0.94 -2.1001,-1.93 -3.09009,-2.95c-0.07983,-0.08 -0.15991,-0.17 -0.24,-0.25l-0.02991,-0.03c-0.06994,-0.06 -0.13,-0.13 -0.19006,-0.19c-0.84,-0.88 -1.6499,-1.79 -2.42993,-2.72q-0.64508,-0.765 -1.26,-1.56a58.61459,58.61459 0 0 1 -12.53011,-35.17c-0.02,-0.24 -0.02,-0.49 -0.02,-0.74l0,-0.93c0,-0.11 0,-0.22 0.01,-0.33a58.69289,58.69289 0 0 1 12.31,-35.32q0.61486,-0.795 1.26,-1.56c0.79,-0.96 1.61987,-1.89 2.47,-2.8c0.06006,-0.07 0.12,-0.13 0.18994,-0.2c0,-0.01 0.01,-0.02 0.02,-0.03c0.08008,-0.08 0.16,-0.17 0.25,-0.25q1.66517,-1.725 3.47,-3.32c0.27,-0.25 0.55,-0.49 0.83008,-0.72a58.77748,58.77748 0 0 1 37.7,-14.03c0.1001,-0.01 0.21,-0.01 0.31006,-0.01l0.6499,0a58.80169,58.80169 0 0 1 37,13.4c0.28,0.24 0.56006,0.47 0.84009,0.71c1.46,1.24 2.86,2.56 4.18994,3.94c0.08008,0.08 0.16,0.17 0.24,0.25l0.02,0.02c0.07007,0.06 0.14,0.14 0.2,0.2c0.74,0.78 1.45007,1.59 2.14014,2.41c0.43994,0.51 0.85986,1.02 1.27991,1.55a58.69052,58.69052 0 0 1 12.64994,35.76a2.807,2.807 0 0 1 0.01,0.29z"/>
  <rect id="svg_36" fill="#fff" height="118" width="2" y="179.21795" x="171.75"/>
  <rect id="svg_37" fill="#fff" height="2" width="118.51001" y="237.21795" x="113.75"/>
  <path id="svg_38" fill="#fff" d="m147.73,237.21795a45.92906,45.92906 0 0 0 -19.92993,-36.88q-0.64507,0.765 -1.26,1.56a43.96072,43.96072 0 0 1 19.19993,35.32c0.01,0.33 0.01,0.66 0.01,1s0,0.67 -0.01,1a44.004,44.004 0 0 1 -18.97,35.17q0.61487,0.795 1.26,1.56a45.95941,45.95941 0 0 0 19.7,-36.73c0.02,-0.33 0.02,-0.67 0.02,-1s0,-0.67 -0.02,-1z"/>
  <path id="svg_39" fill="#fff" d="m199.76,239.21795c-0.01,-0.33 -0.01,-0.66 -0.01,-1s0,-0.67 0.01,-1a43.99751,43.99751 0 0 1 19.84,-35.76c-0.42005,-0.53 -0.84,-1.04 -1.27991,-1.55a45.96454,45.96454 0 0 0 -20.55009,37.31c-0.02,0.33 -0.02,0.67 -0.02,1s0,0.67 0.02,1a45.95016,45.95016 0 0 0 20.32007,37.15c0.43994,-0.51 0.86987,-1.02 1.27991,-1.55a43.981,43.981 0 0 1 -19.60998,-35.6z"/>
 </g>
</svg>